<svg width="24" height="24" viewBox="0 0 24 24" fill="none" xmlns="http://www.w3.org/2000/svg">
<g opacity="0.5">
<path d="M11.9996 3.13672C14.6451 3.13672 16.978 3.83218 18.9195 5.21191L19.2105 5.42578C20.6249 6.50036 21.4354 7.66088 21.8297 8.23145L21.8795 8.31055C21.9252 8.39272 21.9575 8.48188 21.9771 8.57422C22.0032 8.69728 22.0048 8.82471 21.981 8.94824C21.9572 9.07163 21.9092 9.18945 21.8394 9.29395C21.7695 9.3985 21.6788 9.4874 21.5738 9.55664C21.3619 9.69665 21.1037 9.74916 20.8541 9.70215C20.6044 9.65508 20.3833 9.51225 20.2369 9.30469L20.2359 9.30371C19.4956 8.23914 17.2632 5.03125 11.9996 5.03125C6.85556 5.03142 4.54643 7.98909 3.79938 9.24316L3.7984 9.24219C3.71415 9.38786 3.59391 9.50917 3.44781 9.59277C3.30164 9.67634 3.13567 9.71904 2.96735 9.71777L2.96832 9.71875L2.96539 9.71777L2.96344 9.71875V9.71777C2.79476 9.71839 2.6287 9.67612 2.48199 9.59277V9.5918C2.37293 9.5303 2.27668 9.44842 2.19977 9.34961C2.12256 9.25036 2.06553 9.13605 2.03278 9.01465C2.00013 8.89347 1.99261 8.76696 2.00934 8.64258C2.02615 8.51797 2.06766 8.39745 2.13141 8.28906L2.13239 8.28711C3.06284 6.73427 5.88142 3.13689 11.9996 3.13672Z" stroke="#FAFFFB" stroke-width="0.5"/>
<path d="M12.0009 5.75513C14.1721 5.75513 16.224 6.49356 17.9335 7.88501L17.9345 7.88599C19.1721 8.89789 20.1991 10.2366 20.791 11.6028L20.9042 11.8762L21.0292 12.2297C21.6032 14.0109 21.3794 15.96 20.3935 17.2795C19.7315 18.166 18.7961 18.6648 17.7509 18.679L17.54 18.675C16.1171 18.6037 15.2461 18.0656 14.6923 17.3391C14.1516 16.6298 13.9305 15.7612 13.7548 15.0784L13.622 14.5823C13.4929 14.1321 13.3692 13.8143 13.1904 13.5911C12.9761 13.3237 12.6554 13.1663 12.0009 13.1663C11.2788 13.1663 10.8302 13.3633 10.5595 13.7161C10.3661 13.9691 10.2525 14.3059 10.1962 14.676C10.1543 14.9523 10.1457 15.2369 10.1542 15.5002L10.1679 15.7551V15.7561C10.1995 16.2051 10.2752 16.65 10.3935 17.0842C10.4544 17.2368 10.8347 18.1597 11.6132 19.1506C12.4041 20.1573 13.5924 21.2184 15.2578 21.6321C15.3799 21.661 15.4961 21.7145 15.5976 21.7883C15.6991 21.8621 15.7854 21.9555 15.8505 22.0627C15.9156 22.1699 15.9588 22.2894 15.9775 22.4133C15.9961 22.5373 15.9895 22.6638 15.9589 22.7854L15.9579 22.7922L15.7167 22.7249L15.957 22.7922C15.8998 22.9959 15.7779 23.1752 15.6093 23.303C15.4412 23.4303 15.2361 23.4989 15.0253 23.4993L15.0224 23.5002V23.4993C14.9429 23.4999 14.8633 23.4916 14.7861 23.4729H14.7851C12.5367 22.916 10.9988 21.5138 10.0185 20.2405C9.03853 18.9676 8.60512 17.8088 8.56732 17.7053L8.56244 17.6946L8.55072 17.6477C8.53056 17.5767 8.29779 16.7794 8.24115 15.7737C8.18491 14.7746 8.29921 13.5171 9.02435 12.5715L9.02533 12.5706C9.69741 11.6991 10.7135 11.2678 12.0068 11.2678C13.2115 11.2679 14.1208 11.6461 14.748 12.4592L14.9238 12.7092C15.3033 13.3076 15.4741 13.9949 15.6308 14.6135L15.7714 15.137C15.9092 15.6165 16.047 15.969 16.2529 16.2258C16.5076 16.5436 16.893 16.7424 17.6415 16.7805C18.2189 16.8096 18.6059 16.4762 18.8408 16.1624C19.4774 15.3031 19.6066 13.8587 19.1015 12.5588C18.4428 10.8564 16.1035 7.65649 11.9999 7.65649C10.2419 7.6565 8.63283 8.22094 7.34369 9.27759C6.27411 10.155 5.42622 11.3952 5.01947 12.6643C4.64581 13.8352 4.70032 15.3649 4.85931 16.6311C4.93821 17.2594 5.04164 17.8138 5.12592 18.2131C5.16802 18.4126 5.20541 18.5735 5.23236 18.6848C5.24582 18.7404 5.25601 18.784 5.26361 18.8137L5.27533 18.8586L5.27631 18.8616C5.30881 18.9834 5.31709 19.1107 5.29974 19.2356C5.28236 19.3605 5.24023 19.4808 5.17572 19.5891C5.11119 19.6974 5.0253 19.7917 4.92377 19.8665C4.82222 19.9412 4.70653 19.9952 4.58392 20.0247L4.58295 20.0237C4.33931 20.0867 4.08046 20.0539 3.86127 19.9299C3.64026 19.8049 3.4777 19.5977 3.40717 19.3538L3.40521 19.3489C3.38038 19.2558 3.09167 18.1719 2.92279 16.7522C2.75472 15.339 2.70144 13.5601 3.16986 12.092V12.0911C4.18207 8.93588 7.30464 5.75534 12.0009 5.75513Z" stroke="#FAFFFB" stroke-width="0.5"/>
<path d="M12.0018 8.4472C14.2443 8.44733 16.0461 9.43137 17.2274 11.2822L17.4559 11.664L17.6053 11.9462C18.3174 13.3549 18.4661 14.6791 18.4716 14.7568H18.4706C18.4813 14.8801 18.4682 15.0047 18.4315 15.123C18.3943 15.2429 18.3341 15.3546 18.2538 15.4511C18.1733 15.5478 18.0741 15.628 17.9628 15.6865C17.8514 15.7449 17.7296 15.7806 17.6044 15.7919L17.6034 15.791C17.3532 15.8167 17.1025 15.745 16.9052 15.5888C16.7066 15.4316 16.5781 15.2024 16.5468 14.9511V14.9501C16.4273 14.1058 16.1539 13.2905 15.7401 12.5449C14.91 11.0804 13.6627 10.3466 11.996 10.3466C10.5289 10.3467 9.41573 10.7866 8.6571 11.624C7.54869 12.8476 7.31847 14.7618 7.47449 16.0507L7.54089 16.4599C7.901 18.4784 8.73169 20.108 10.1346 21.5781L10.1962 21.6494C10.2542 21.7233 10.3012 21.8054 10.3348 21.8935C10.3797 22.0111 10.4009 22.1369 10.3964 22.2626C10.3918 22.3884 10.3617 22.5119 10.3085 22.6259C10.2552 22.74 10.1794 22.8424 10.0858 22.9267C9.93033 23.0674 9.73435 23.1536 9.52722 23.1738L9.43738 23.1786C9.30635 23.1789 9.17626 23.1524 9.05554 23.1015C8.93485 23.0506 8.82548 22.9758 8.73425 22.8818L8.7323 22.8798C6.95397 21.0134 5.9463 18.9213 5.56824 16.3154L5.56531 16.2968V16.2792C5.35616 14.5465 5.66532 12.0771 7.2196 10.3622C8.37784 9.08487 10.0004 8.4472 12.0018 8.4472Z" stroke="#FAFFFB" stroke-width="0.5"/>
<path d="M11.9193 14.1104C12.1745 14.0906 12.427 14.1735 12.6215 14.3398C12.8128 14.5037 12.9317 14.7358 12.9545 14.9863C12.9569 15.0057 13.0086 15.5515 13.2523 16.249C13.4971 16.9494 13.9296 17.7823 14.682 18.3857L14.851 18.5127C15.7164 19.1263 16.8568 19.3752 18.2787 19.2158C18.5312 19.1852 18.7861 19.2557 18.9867 19.4121C19.1622 19.5489 19.2842 19.742 19.3334 19.957L19.35 20.0508V20.0547C19.3639 20.18 19.3524 20.3068 19.3168 20.4277C19.2812 20.5485 19.2224 20.6612 19.1429 20.7588C19.0634 20.8565 18.965 20.9377 18.8539 20.9971C18.7427 21.0564 18.62 21.0928 18.4945 21.1045L18.4935 21.1035C18.1508 21.1432 17.8063 21.1648 17.4613 21.165C15.8896 21.165 14.536 20.7285 13.4486 19.8486V19.8477C11.2803 18.0999 11.0414 15.2722 11.0306 15.1514V15.1484C11.0108 14.8931 11.0935 14.6399 11.2601 14.4453C11.4267 14.2508 11.664 14.1301 11.9193 14.1104ZM12.0004 0.5C16.0018 0.500068 18.1555 1.65844 18.7953 2.07324C18.9544 2.14567 19.0918 2.25893 19.1898 2.4043C19.2954 2.56092 19.3519 2.74568 19.3519 2.93457V2.9375C19.3505 3.06336 19.3244 3.18802 19.2748 3.30371C19.2253 3.41924 19.1529 3.52358 19.0629 3.61133C18.9727 3.69914 18.8654 3.76893 18.7484 3.81543C18.6331 3.86119 18.5101 3.88308 18.3861 3.88184H18.3851C18.3838 3.88182 18.3825 3.88283 18.3812 3.88281V3.88184C18.1858 3.8823 17.9962 3.82291 17.8353 3.71289C17.8301 3.71009 17.826 3.70786 17.8246 3.70703L17.8129 3.69922C17.8106 3.6977 17.8079 3.69557 17.806 3.69434C17.8018 3.69148 17.7962 3.68811 17.7894 3.68359C17.7757 3.67445 17.7553 3.66066 17.7279 3.64355C17.6727 3.60914 17.5886 3.55919 17.475 3.49902C17.2477 3.3787 16.9011 3.21719 16.4281 3.05469C15.4818 2.72963 14.0257 2.40137 12.0013 2.40137C8.01218 2.40138 6.23862 3.68019 6.20837 3.70215L6.20154 3.70703C6.03834 3.8206 5.84466 3.88112 5.64587 3.88184L5.64685 3.88281L5.64392 3.88184L5.64294 3.88281V3.88184C5.5186 3.88339 5.39533 3.86117 5.27966 3.81543C5.16271 3.76916 5.05549 3.70085 4.96521 3.61328C4.87499 3.52575 4.80309 3.42109 4.7533 3.30566C4.70352 3.19026 4.67694 3.0661 4.67517 2.94043V2.93555L4.68103 2.83496C4.69207 2.73518 4.71924 2.63761 4.76111 2.5459C4.81701 2.4235 4.89803 2.31409 4.99939 2.22559L5.06091 2.17188L5.07068 2.1709C5.08625 2.1593 5.10214 2.14813 5.11853 2.1377L5.38611 1.96777C6.1962 1.48698 8.31245 0.5 12.0004 0.5Z" stroke="#FAFFFB" stroke-width="0.5"/>
</g>
</svg>
