<svg width="59" height="59" viewBox="0 0 59 59" fill="none" xmlns="http://www.w3.org/2000/svg">
<path opacity="0.2" d="M0 46.71V59H12.29L48.5373 22.7527L36.2473 10.4627L0 46.71ZM58.0416 8.6274L50.3726 0.958436C50.0694 0.654616 49.7093 0.413576 49.3128 0.249115C48.9163 0.0846534 48.4913 0 48.0621 0C47.6329 0 47.2078 0.0846534 46.8114 0.249115C46.4149 0.413576 46.0548 0.654616 45.7516 0.958436L39.7541 6.95596L52.044 19.246L58.0416 13.2484C58.3454 12.9452 58.5864 12.5851 58.7509 12.1886C58.9153 11.7922 59 11.3671 59 10.9379C59 10.5087 58.9153 10.0837 58.7509 9.68721C58.5864 9.29074 58.3454 8.93059 58.0416 8.6274Z" fill="url(#paint0_linear_165_511)"/>
<defs>
<linearGradient id="paint0_linear_165_511" x1="59" y1="2.7534e-06" x2="-11.6371" y2="22.5546" gradientUnits="userSpaceOnUse">
<stop stop-color="#2BBCFF"/>
<stop offset="0.5" stop-color="#91FFA4"/>
<stop offset="1" stop-color="#FFCC00"/>
</linearGradient>
</defs>
</svg>
