<svg width="24" height="24" viewBox="0 0 24 24" fill="none" xmlns="http://www.w3.org/2000/svg">
<path d="M21.4 7.4998C22.2 8.2998 22.2 9.5998 21.4 10.2998L18.6 13.0998L10.8 5.2998L13.6 2.4998C14.4 1.6998 15.7 1.6998 16.4 2.4998L18.2 4.2998L21.2 1.2998L22.6 2.6998L19.6 5.6998L21.4 7.4998ZM15.6 13.2998L14.2 11.8998L11.4 14.6998L9.30002 12.5998L12.1 9.7998L10.7 8.3998L7.90002 11.1998L6.40002 9.7998L3.60002 12.5998C2.80002 13.3998 2.80002 14.6998 3.60002 15.3998L5.40002 17.1998L1.40002 21.1998L2.80002 22.5998L6.80002 18.5998L8.60002 20.3998C9.40002 21.1998 10.7 21.1998 11.4 20.3998L14.2 17.5998L12.8 16.1998L15.6 13.2998Z" fill="#91FFA4"/>
</svg>
