<svg width="24" height="19" viewBox="0 0 24 19" fill="none" xmlns="http://www.w3.org/2000/svg">
<path d="M8.4 9.5C9.34935 9.5 10.2774 9.22142 11.0667 8.69948C11.8561 8.17755 12.4713 7.4357 12.8346 6.56775C13.1979 5.6998 13.293 4.74473 13.1078 3.82332C12.9226 2.90191 12.4654 2.05554 11.7941 1.39125C11.1228 0.726946 10.2675 0.274552 9.33643 0.0912721C8.40532 -0.0920078 7.44021 0.00205809 6.56312 0.361574C5.68603 0.721091 4.93638 1.32991 4.40895 2.11104C3.88152 2.89218 3.6 3.81054 3.6 4.75C3.6 6.00978 4.10571 7.21796 5.00589 8.10876C5.90606 8.99956 7.12696 9.5 8.4 9.5ZM12 11.875C12.0027 11.4784 12.1073 11.0889 12.3038 10.7432C12.1238 10.7246 11.9475 10.6875 11.76 10.6875H11.1338C10.2766 11.0787 9.34391 11.2812 8.4 11.2812C7.45609 11.2812 6.52341 11.0787 5.66625 10.6875H5.04C3.7034 10.6878 2.42163 11.2134 1.47651 12.1486C0.531392 13.0839 0.000298248 14.3523 0 15.675L0 17.2188C0 17.6912 0.189642 18.1442 0.527208 18.4783C0.864773 18.8123 1.32261 19 1.8 19H12.3338C12.1181 18.6405 12.0029 18.2306 12 17.8125V11.875ZM22.8 10.6875H21.6V7.71875C21.6 6.93139 21.2839 6.17628 20.7213 5.61953C20.1587 5.06278 19.3957 4.75 18.6 4.75C17.8044 4.75 17.0413 5.06278 16.4787 5.61953C15.9161 6.17628 15.6 6.93139 15.6 7.71875V10.6875H14.4C14.0817 10.6875 13.7765 10.8126 13.5515 11.0353C13.3264 11.258 13.2 11.5601 13.2 11.875V17.8125C13.2 18.1274 13.3264 18.4295 13.5515 18.6522C13.7765 18.8749 14.0817 19 14.4 19H22.8C23.1183 19 23.4235 18.8749 23.6485 18.6522C23.8736 18.4295 24 18.1274 24 17.8125V11.875C24 11.5601 23.8736 11.258 23.6485 11.0353C23.4235 10.8126 23.1183 10.6875 22.8 10.6875ZM18.6 16.0313C18.3627 16.0313 18.1307 15.9616 17.9333 15.8311C17.736 15.7006 17.5822 15.5152 17.4913 15.2982C17.4005 15.0812 17.3768 14.8424 17.4231 14.6121C17.4694 14.3817 17.5836 14.1701 17.7515 14.0041C17.9193 13.838 18.1331 13.7249 18.3659 13.6791C18.5987 13.6333 18.8399 13.6568 19.0592 13.7466C19.2785 13.8365 19.4659 13.9887 19.5978 14.184C19.7296 14.3793 19.8 14.6089 19.8 14.8438C19.8 15.1587 19.6736 15.4607 19.4485 15.6834C19.2235 15.9061 18.9183 16.0313 18.6 16.0313ZM19.8 10.6875H17.4V7.71875C17.4 7.40381 17.5264 7.10176 17.7515 6.87906C17.9765 6.65636 18.2817 6.53125 18.6 6.53125C18.9183 6.53125 19.2235 6.65636 19.4485 6.87906C19.6736 7.10176 19.8 7.40381 19.8 7.71875V10.6875Z" fill="#91FFA4"/>
</svg>
